<svg width="18" height="18" viewBox="0 0 18 18" fill="none" xmlns="http://www.w3.org/2000/svg">
<path d="M9 6.00049C10.1046 6.00049 11 5.10506 11 4.00049C11 2.89592 10.1046 2.00049 9 2.00049C7.89543 2.00049 7 2.89592 7 4.00049C7 5.10506 7.89543 6.00049 9 6.00049ZM9 8.00049C6.79086 8.00049 5 6.20963 5 4.00049C5 1.79135 6.79086 0.000488281 9 0.000488281C11.2091 0.000488281 13 1.79135 13 4.00049C13 6.20963 11.2091 8.00049 9 8.00049Z" fill="#26374D"/>
<path fill-rule="evenodd" clip-rule="evenodd" d="M15.9291 17.0005C15.4439 13.6082 12.5265 11.0005 9.00003 11.0005C5.47356 11.0005 2.55615 13.6082 2.07092 17.0005C2.38592 17.0005 2.83112 17.0005 3.50003 17.0005C6.00003 17.0005 6.00003 17.0005 9.00003 17.0005C12 17.0005 12 17.0005 14.5 17.0005C15.169 17.0005 15.6141 17.0005 15.9291 17.0005Z" stroke="#26374D" stroke-width="2"/>
</svg>
