<svg width="24" height="24" viewBox="0 0 24 24" fill="none" xmlns="http://www.w3.org/2000/svg">
<path d="M16.5858 11.5355L19.0858 9.03553C20.2377 7.88359 20.2377 6.01591 19.0858 4.86396C17.9338 3.71201 16.0662 3.71201 14.9142 4.86396L12.4142 7.36396L11 5.94975L13.5 3.44975C15.433 1.51675 18.567 1.51675 20.5 3.44975C22.433 5.38274 22.433 8.51675 20.5 10.4497L18 12.9497L16.5858 11.5355ZM19.0858 9.03553C20.2377 7.88359 20.2377 6.01591 19.0858 4.86396C17.9338 3.71201 16.0662 3.71201 14.9142 4.86396L12.4142 7.36396L11 5.94975L13.5 3.44975C15.433 1.51675 18.567 1.51675 20.5 3.44975C22.433 5.38274 22.433 8.51675 20.5 10.4497L18 12.9497L16.5858 11.5355L19.0858 9.03553Z" fill="#26374D"/>
<path d="M7.36392 12.4142L4.86392 14.9142C3.71197 16.0661 3.71197 17.9338 4.86392 19.0857C6.01587 20.2377 7.88355 20.2377 9.03549 19.0857L11.5355 16.5857L12.9497 18L10.4497 20.5C8.51671 22.433 5.3827 22.433 3.44971 20.5C1.51671 18.567 1.51671 15.433 3.44971 13.5L5.94971 11L7.36392 12.4142ZM4.86392 14.9142C3.71197 16.0661 3.71197 17.9338 4.86392 19.0857C6.01587 20.2377 7.88355 20.2377 9.03549 19.0857L11.5355 16.5857L12.9497 18L10.4497 20.5C8.51671 22.433 5.3827 22.433 3.44971 20.5C1.51671 18.567 1.51671 15.433 3.44971 13.5L5.94971 11L7.36392 12.4142L4.86392 14.9142Z" fill="#26374D"/>
<path d="M16.5 6.08594L17.9142 7.50015L7.50003 17.9144L6.08582 16.5002L16.5 6.08594Z" fill="#26374D"/>
</svg>
