<svg width="40" height="48" viewBox="0 0 40 48" fill="none" xmlns="http://www.w3.org/2000/svg">
<path d="M13.2918 19.1076L19.7793 15.1436C20.0927 14.9521 20.4787 14.9521 20.792 15.1436L27.2791 19.1076C27.5918 19.2988 27.7846 19.6518 27.7852 20.034V27.9644C27.7851 28.3472 27.5922 28.7009 27.2791 28.8924L20.7915 32.8564C20.4782 33.0479 20.0922 33.0479 19.7789 32.8564L13.2912 28.892C12.9781 28.7005 12.7852 28.3468 12.7852 27.964V20.034C12.7859 19.6516 12.9789 19.2987 13.2918 19.1076Z" fill="url(#paint0_linear)"/>
<path d="M13.2918 19.1076L19.7793 15.1436C20.0927 14.9521 20.4787 14.9521 20.792 15.1436L27.2791 19.1076C27.5918 19.2988 27.7846 19.6518 27.7852 20.034V27.9644C27.7851 28.3472 27.5922 28.7009 27.2791 28.8924L20.7915 32.8564C20.4782 33.0479 20.0922 33.0479 19.7789 32.8564L13.2912 28.892C12.9781 28.7005 12.7852 28.3468 12.7852 27.964V20.034C12.7859 19.6516 12.9789 19.2987 13.2918 19.1076Z" fill="#4D67E9"/>
<path fill-rule="evenodd" clip-rule="evenodd" d="M39.832 10.9961L20.7852 0L0 12V36L6.78516 39.917V31.0479V30V16.9492C6.78711 16.2695 7.13281 15.6426 7.69531 15.3027L19.373 8.25488C19.9375 7.91504 20.6309 7.91504 21.1953 8.25488L32.7852 15.249L39.832 10.9961ZM12.7852 35.7695V43.3809L20.7852 48L39.832 37.0039L32.7852 32.752L21.1973 39.7451C20.8828 39.9336 20.5293 40.0176 20.1797 39.9971C19.9004 39.9805 19.623 39.8965 19.373 39.7451L12.7852 35.7695Z" fill="#4D67E9"/>
<path fill-rule="evenodd" clip-rule="evenodd" d="M27.1251 19L27.2791 19.0941C27.5918 19.2853 27.7846 19.6382 27.7852 20.0204V27.9509C27.7851 28.3337 27.5922 28.6873 27.2791 28.8788L20.7915 32.8429C20.683 32.9092 20.5657 32.9525 20.4458 32.9729L20.2912 32.8784C19.9781 32.6869 19.7852 32.3332 19.7852 31.9505V24.0204C19.7859 23.6381 19.9789 23.2851 20.2918 23.0941L26.7793 19.1301C26.8879 19.0637 27.0052 19.0204 27.1251 19Z" fill="url(#paint1_linear)"/>
<path fill-rule="evenodd" clip-rule="evenodd" d="M27.1251 19L27.2791 19.0941C27.5918 19.2853 27.7846 19.6382 27.7852 20.0204V27.9509C27.7851 28.3337 27.5922 28.6873 27.2791 28.8788L20.7915 32.8429C20.683 32.9092 20.5657 32.9525 20.4458 32.9729L20.2912 32.8784C19.9781 32.6869 19.7852 32.3332 19.7852 31.9505V24.0204C19.7859 23.6381 19.9789 23.2851 20.2918 23.0941L26.7793 19.1301C26.8879 19.0637 27.0052 19.0204 27.1251 19Z" fill="#4AB7F0"/>
<defs>
<linearGradient id="paint0_linear" x1="31.375" y1="28.4318" x2="15.5929" y2="35.0985" gradientUnits="userSpaceOnUse">
<stop stop-color="#0071BC"/>
<stop offset="1" stop-color="#662D91"/>
</linearGradient>
<linearGradient id="paint1_linear" x1="38.375" y1="32.4183" x2="22.5929" y2="39.085" gradientUnits="userSpaceOnUse">
<stop stop-color="#0071BC"/>
<stop offset="1" stop-color="#662D91"/>
</linearGradient>
</defs>
</svg>
