<svg width="147" height="73" viewBox="0 0 147 73" fill="none" xmlns="http://www.w3.org/2000/svg">
<path d="M73.8919 39.2129C74.0871 39.0177 74.0871 38.7011 73.8919 38.5058L70.7099 35.3238C70.5146 35.1286 70.198 35.1286 70.0028 35.3238C69.8075 35.5191 69.8075 35.8357 70.0028 36.0309L72.8312 38.8594L70.0028 41.6878C69.8075 41.8831 69.8075 42.1996 70.0028 42.3949C70.198 42.5902 70.5146 42.5902 70.7099 42.3949L73.8919 39.2129ZM62.2246 39.3594H73.5383V38.3594H62.2246V39.3594Z" fill="#585DED"/>
<path d="M73.8919 23.2129C74.0871 23.0177 74.0871 22.7011 73.8919 22.5058L70.7099 19.3238C70.5146 19.1286 70.198 19.1286 70.0028 19.3238C69.8075 19.5191 69.8075 19.8357 70.0028 20.0309L72.8312 22.8594L70.0028 25.6878C69.8075 25.8831 69.8075 26.1996 70.0028 26.3949C70.198 26.5902 70.5146 26.5902 70.7099 26.3949L73.8919 23.2129ZM62.2246 23.3594H73.5383V22.3594H62.2246V23.3594Z" fill="#585DED"/>
<path d="M73.8919 55.2129C74.0871 55.0177 74.0871 54.7011 73.8919 54.5058L70.7099 51.3238C70.5146 51.1286 70.198 51.1286 70.0028 51.3238C69.8075 51.5191 69.8075 51.8357 70.0028 52.0309L72.8312 54.8594L70.0028 57.6878C69.8075 57.8831 69.8075 58.1996 70.0028 58.3949C70.198 58.5902 70.5146 58.5902 70.7099 58.3949L73.8919 55.2129ZM62.2246 55.3594H73.5383V54.3594H62.2246V55.3594Z" fill="#585DED"/>
<circle cx="43" cy="60" r="12" fill="white" stroke="#5C59EE" stroke-width="2"/>
<path fill-rule="evenodd" clip-rule="evenodd" d="M42.7638 52.8108C38.7982 52.8108 35.5735 56.0355 35.5735 59.9999C35.5735 63.9645 38.7982 67.1892 42.7638 67.1892C46.7271 67.1892 49.9528 63.9645 49.9528 59.9999C49.9528 56.0355 46.7271 52.8108 42.7638 52.8108ZM42.7638 68C38.3524 68 34.7637 64.4113 34.7637 59.9999C34.7637 55.5887 38.3524 52 42.7638 52C47.174 52 50.7627 55.5887 50.7627 59.9999C50.7627 64.4113 47.174 68 42.7638 68V68Z" fill="#5C59EE"/>
<path fill-rule="evenodd" clip-rule="evenodd" d="M46.3559 59.2103C46.5127 58.1622 45.7147 57.5987 44.6235 57.2228L44.9774 55.803L44.1132 55.5876L43.7686 56.97C43.5414 56.9134 43.308 56.86 43.0762 56.8071L43.4232 55.4156L42.5595 55.2002L42.2053 56.6195C42.0172 56.5767 41.8326 56.5343 41.6534 56.4898L41.6544 56.4854L40.4625 56.1878L40.2326 57.1108C40.2326 57.1108 40.8738 57.2578 40.8603 57.2669C41.2103 57.3543 41.2736 57.5859 41.263 57.7695L40.8598 59.387C40.8839 59.3932 40.9152 59.402 40.9496 59.4158L40.9203 59.4085C40.9003 59.4035 40.8795 59.3983 40.8583 59.3932L40.2931 61.659C40.2503 61.7654 40.1418 61.9249 39.8971 61.8643C39.9057 61.8769 39.2689 61.7075 39.2689 61.7075L38.8398 62.6968L39.9645 62.9772C40.0901 63.0087 40.2142 63.041 40.337 63.073L40.3373 63.0731C40.419 63.0944 40.5001 63.1156 40.5806 63.1362L40.223 64.5723L41.0862 64.7876L41.4405 63.3668C41.6763 63.4308 41.9052 63.4899 42.1292 63.5455L41.7762 64.9597L42.6405 65.1751L42.9981 63.7417C44.4718 64.0206 45.58 63.9081 46.0465 62.5752C46.4224 61.502 46.0278 60.8829 45.2524 60.4792C45.8171 60.349 46.2424 59.9775 46.3559 59.2103ZM41.8897 62.3706L41.8897 62.3706C41.8262 62.3538 41.7695 62.3388 41.7212 62.3268L42.1958 60.4243C42.2546 60.439 42.3266 60.4551 42.4081 60.4734C43.1375 60.6371 44.6322 60.9725 44.3811 61.9793C44.1361 62.9639 42.5949 62.5568 41.8897 62.3706ZM42.5546 59.5905C43.1425 59.7474 44.425 60.0897 44.6484 59.1948C44.8765 58.2794 43.63 58.0034 43.0213 57.8687C42.9528 57.8535 42.8924 57.8402 42.8431 57.8279L42.4128 59.5534C42.4535 59.5635 42.5011 59.5763 42.5546 59.5905Z" fill="#242D3C"/>
<circle cx="13" cy="38" r="12" fill="white" stroke="#5C59EE" stroke-width="2"/>
<path fill-rule="evenodd" clip-rule="evenodd" d="M12.7638 30.8108C8.79816 30.8108 5.5735 34.0355 5.5735 37.9999C5.5735 41.9645 8.79816 45.1892 12.7638 45.1892C16.7271 45.1892 19.9528 41.9645 19.9528 37.9999C19.9528 34.0355 16.7271 30.8108 12.7638 30.8108ZM12.7638 46C8.35236 46 4.76367 42.4113 4.76367 37.9999C4.76367 33.5887 8.35236 30 12.7638 30C17.174 30 20.7627 33.5887 20.7627 37.9999C20.7627 42.4113 17.174 46 12.7638 46V46Z" fill="#5C59EE"/>
<path fill-rule="evenodd" clip-rule="evenodd" d="M16.3559 37.2103C16.5127 36.1622 15.7147 35.5987 14.6235 35.2228L14.9774 33.803L14.1132 33.5876L13.7686 34.97C13.5414 34.9134 13.308 34.86 13.0762 34.8071L13.4232 33.4156L12.5595 33.2002L12.2053 34.6195C12.0172 34.5767 11.8326 34.5343 11.6534 34.4898L11.6544 34.4854L10.4625 34.1878L10.2326 35.1108C10.2326 35.1108 10.8738 35.2578 10.8603 35.2669C11.2103 35.3543 11.2736 35.5859 11.263 35.7695L10.8598 37.387C10.8839 37.3932 10.9152 37.402 10.9496 37.4158L10.9203 37.4085C10.9003 37.4035 10.8795 37.3983 10.8583 37.3932L10.2931 39.659C10.2503 39.7654 10.1418 39.9249 9.89707 39.8643C9.90569 39.8769 9.26889 39.7075 9.26889 39.7075L8.83984 40.6968L9.96452 40.9772C10.0901 41.0087 10.2142 41.041 10.337 41.073L10.3373 41.0731C10.419 41.0944 10.5001 41.1156 10.5806 41.1362L10.223 42.5723L11.0862 42.7876L11.4405 41.3668C11.6763 41.4308 11.9052 41.4899 12.1292 41.5455L11.7762 42.9597L12.6405 43.1751L12.9981 41.7417C14.4718 42.0206 15.58 41.9081 16.0465 40.5752C16.4224 39.502 16.0278 38.8829 15.2524 38.4792C15.8171 38.349 16.2424 37.9775 16.3559 37.2103ZM11.8897 40.3706L11.8897 40.3706C11.8262 40.3538 11.7695 40.3388 11.7212 40.3268L12.1958 38.4243C12.2546 38.439 12.3266 38.4551 12.4081 38.4734C13.1375 38.6371 14.6322 38.9725 14.3811 39.9793C14.1361 40.9639 12.5949 40.5568 11.8897 40.3706ZM12.5546 37.5905C13.1425 37.7474 14.425 38.0897 14.6484 37.1948C14.8765 36.2794 13.63 36.0034 13.0213 35.8687C12.9528 35.8535 12.8924 35.8402 12.8431 35.8279L12.4128 37.5534C12.4535 37.5635 12.5011 37.5763 12.5546 37.5905Z" fill="#242D3C"/>
<rect x="95" y="41" width="33" height="16" fill="#E8EDEF"/>
<circle cx="42" cy="16" r="12" fill="white" stroke="#5C59EE" stroke-width="2"/>
<path fill-rule="evenodd" clip-rule="evenodd" d="M41.7638 8.81085C37.7982 8.81085 34.5735 12.0355 34.5735 15.9999C34.5735 19.9645 37.7982 23.1892 41.7638 23.1892C45.7271 23.1892 48.9528 19.9645 48.9528 15.9999C48.9528 12.0355 45.7271 8.81085 41.7638 8.81085ZM41.7638 24C37.3524 24 33.7637 20.4113 33.7637 15.9999C33.7637 11.5887 37.3524 8 41.7638 8C46.174 8 49.7627 11.5887 49.7627 15.9999C49.7627 20.4113 46.174 24 41.7638 24V24Z" fill="#5C59EE"/>
<path fill-rule="evenodd" clip-rule="evenodd" d="M45.3559 15.2103C45.5127 14.1622 44.7147 13.5987 43.6235 13.2228L43.9774 11.803L43.1132 11.5876L42.7686 12.97C42.5414 12.9134 42.308 12.86 42.0762 12.8071L42.4232 11.4156L41.5595 11.2002L41.2053 12.6195C41.0172 12.5767 40.8326 12.5343 40.6534 12.4898L40.6544 12.4854L39.4625 12.1878L39.2326 13.1108C39.2326 13.1108 39.8738 13.2578 39.8603 13.2669C40.2103 13.3543 40.2736 13.5859 40.263 13.7695L39.8598 15.387C39.8839 15.3932 39.9152 15.402 39.9496 15.4158L39.9203 15.4085C39.9003 15.4035 39.8795 15.3983 39.8583 15.3932L39.2931 17.659C39.2503 17.7654 39.1418 17.9249 38.8971 17.8643C38.9057 17.8769 38.2689 17.7075 38.2689 17.7075L37.8398 18.6968L38.9645 18.9772C39.0901 19.0087 39.2142 19.041 39.337 19.073L39.3373 19.0731C39.419 19.0944 39.5001 19.1156 39.5806 19.1362L39.223 20.5723L40.0862 20.7876L40.4405 19.3668C40.6763 19.4308 40.9052 19.4899 41.1292 19.5455L40.7762 20.9597L41.6405 21.1751L41.9981 19.7417C43.4718 20.0206 44.58 19.9081 45.0465 18.5752C45.4224 17.502 45.0278 16.8829 44.2524 16.4792C44.8171 16.349 45.2424 15.9775 45.3559 15.2103ZM40.8897 18.3706L40.8897 18.3706C40.8262 18.3538 40.7695 18.3388 40.7212 18.3268L41.1958 16.4243C41.2546 16.439 41.3266 16.4551 41.4081 16.4734C42.1375 16.6371 43.6322 16.9725 43.3811 17.9793C43.1361 18.9639 41.5949 18.5568 40.8897 18.3706ZM41.5546 15.5905C42.1425 15.7474 43.425 16.0897 43.6484 15.1948C43.8765 14.2794 42.63 14.0034 42.0213 13.8687C41.9528 13.8535 41.8924 13.8402 41.8431 13.8279L41.4128 15.5534C41.4535 15.5635 41.5011 15.5763 41.5546 15.5905Z" fill="#242D3C"/>
<path d="M87.3936 14.2878L125.394 2.19689C126.683 1.78647 128 2.74913 128 4.10274V58C128 59.1046 127.105 60 126 60H88C86.8954 60 86 59.1046 86 58V16.1937C86 15.3227 86.5636 14.5519 87.3936 14.2878Z" stroke="#242D3C" stroke-width="2" stroke-linejoin="round"/>
<rect x="86" y="20" width="60" height="40" rx="2" fill="white" stroke="#585DED" stroke-width="2" stroke-linejoin="round"/>
<circle cx="133.5" cy="39.5" r="4.5" fill="white" stroke="#242D3C" stroke-width="2"/>
<path d="M91.5 29H124" stroke="#242D3C" stroke-width="2" stroke-linejoin="round"/>
</svg>
