<svg width="146" height="125" viewBox="0 0 146 125" fill="none" xmlns="http://www.w3.org/2000/svg">
<path d="M55 56.5L83 41" stroke="#242D3C" stroke-width="2" stroke-linejoin="round"/>
<path d="M6.292 66.3274L39.5 47.1547L72.708 66.3274V104.673L39.5 123.845L6.292 104.673V66.3274Z" fill="white" stroke="#585DED" stroke-width="2"/>
<path d="M7 67L38.5 85V123.5" stroke="#585DED" stroke-width="2"/>
<path d="M75 21L106.5 39V77.5" stroke="#242D3C" stroke-width="2"/>
<path d="M38 86L66 70.5" stroke="#242D3C" stroke-width="2"/>
<path d="M38 86L66 70.5" stroke="#585DED" stroke-width="2"/>
<path d="M111 37L139 21.5" stroke="#242D3C" stroke-width="2"/>
<circle cx="39" cy="86" r="12" fill="white" stroke="#5C59EE" stroke-width="2"/>
<path fill-rule="evenodd" clip-rule="evenodd" d="M38.7638 78.8108C34.7982 78.8108 31.5735 82.0355 31.5735 85.9999C31.5735 89.9645 34.7982 93.1892 38.7638 93.1892C42.7271 93.1892 45.9528 89.9645 45.9528 85.9999C45.9528 82.0355 42.7271 78.8108 38.7638 78.8108ZM38.7638 94C34.3524 94 30.7637 90.4113 30.7637 85.9999C30.7637 81.5887 34.3524 78 38.7638 78C43.174 78 46.7627 81.5887 46.7627 85.9999C46.7627 90.4113 43.174 94 38.7638 94Z" fill="#5C59EE"/>
<path fill-rule="evenodd" clip-rule="evenodd" d="M42.3559 85.2103C42.5127 84.1622 41.7147 83.5987 40.6235 83.2228L40.9774 81.803L40.1132 81.5876L39.7686 82.97C39.5414 82.9134 39.308 82.86 39.0762 82.8071L39.4232 81.4156L38.5595 81.2002L38.2053 82.6195C38.0172 82.5767 37.8326 82.5343 37.6534 82.4898L37.6544 82.4854L36.4625 82.1878L36.2326 83.1108C36.2326 83.1108 36.8738 83.2578 36.8603 83.2669C37.2103 83.3543 37.2736 83.5859 37.263 83.7695L36.8598 85.387C36.8839 85.3932 36.9152 85.402 36.9496 85.4158L36.9203 85.4085C36.9003 85.4035 36.8795 85.3983 36.8583 85.3932L36.2931 87.659C36.2503 87.7654 36.1418 87.9249 35.8971 87.8643C35.9057 87.8769 35.2689 87.7075 35.2689 87.7075L34.8398 88.6968L35.9645 88.9772C36.0901 89.0087 36.2142 89.041 36.337 89.073L36.3373 89.0731C36.419 89.0944 36.5001 89.1156 36.5806 89.1362L36.223 90.5723L37.0862 90.7876L37.4405 89.3668C37.6763 89.4308 37.9052 89.4899 38.1292 89.5455L37.7762 90.9597L38.6405 91.1751L38.9981 89.7417C40.4718 90.0206 41.58 89.9081 42.0465 88.5752C42.4224 87.502 42.0278 86.8829 41.2524 86.4792C41.8171 86.349 42.2424 85.9775 42.3559 85.2103ZM37.8897 88.3706L37.8897 88.3706C37.8262 88.3538 37.7695 88.3388 37.7212 88.3268L38.1958 86.4243C38.2546 86.439 38.3266 86.4551 38.4081 86.4734C39.1375 86.6371 40.6322 86.9725 40.3811 87.9793C40.1361 88.9639 38.5949 88.5568 37.8897 88.3706ZM38.5546 85.5905C39.1425 85.7474 40.425 86.0897 40.6484 85.1948C40.8765 84.2794 39.63 84.0034 39.0213 83.8687C38.9528 83.8535 38.8924 83.8402 38.8431 83.8279L38.4128 85.5534C38.4535 85.5635 38.5011 85.5763 38.5546 85.5905Z" fill="#242D3C"/>
<circle cx="108" cy="39" r="12" fill="white" stroke="#242D3C" stroke-width="2"/>
<path fill-rule="evenodd" clip-rule="evenodd" d="M108 31.8108C104.035 31.8108 100.81 35.0355 100.81 38.9999C100.81 42.9642 104.035 46.1891 108 46.1891C111.964 46.1891 115.189 42.9642 115.189 38.9999C115.189 35.0355 111.964 31.8108 108 31.8108ZM108 47C103.589 47 100 43.4113 100 38.9999C100 34.5887 103.589 31 108 31C112.411 31 115.999 34.5887 115.999 38.9999C115.999 43.4113 112.411 47 108 47Z" fill="#242D3C"/>
<path fill-rule="evenodd" clip-rule="evenodd" d="M108.759 39.4055H107.24C106.658 39.4055 106.111 39.1789 105.7 38.7686C105.289 38.3552 105.062 37.8084 105.062 37.2279C105.062 36.6464 105.289 36.0996 105.7 35.6882C106.112 35.2769 106.658 35.0505 107.24 35.0505H110.531C110.754 35.0505 110.936 35.2323 110.936 35.4558C110.936 35.6794 110.754 35.8614 110.531 35.8614H107.24C106.875 35.8614 106.532 36.0026 106.273 36.2619C106.015 36.5198 105.873 36.8631 105.873 37.2279C105.873 37.5929 106.015 37.937 106.274 38.1962C106.531 38.4532 106.874 38.5947 107.24 38.5947H108.759C108.982 38.5947 109.164 38.7767 109.164 39C109.164 39.2235 108.982 39.4055 108.759 39.4055Z" fill="#242D3C"/>
<path fill-rule="evenodd" clip-rule="evenodd" d="M108.759 42.9495H105.468C105.244 42.9495 105.062 42.7674 105.062 42.5439C105.062 42.3206 105.244 42.1386 105.468 42.1386H108.759C109.124 42.1386 109.468 41.9971 109.725 41.7391C109.983 41.4809 110.126 41.1379 110.126 40.7718C110.126 40.406 109.983 40.063 109.725 39.8048C109.466 39.5466 109.123 39.4053 108.759 39.4053H107.24C107.016 39.4053 106.835 39.2233 106.835 38.9998C106.835 38.7765 107.016 38.5945 107.24 38.5945H108.759C109.338 38.5945 109.884 38.8208 110.297 39.2312C110.709 39.6425 110.936 40.1896 110.936 40.7718C110.936 41.3544 110.709 41.9012 110.298 42.3125C109.887 42.7229 109.341 42.9495 108.759 42.9495Z" fill="#242D3C"/>
<path fill-rule="evenodd" clip-rule="evenodd" d="M107.999 43.9622C107.775 43.9622 107.594 43.7802 107.594 43.5566V34.4431C107.594 34.2199 107.775 34.0378 107.999 34.0378C108.222 34.0378 108.404 34.2199 108.404 34.4431V43.5566C108.404 43.7802 108.222 43.9622 107.999 43.9622Z" fill="#242D3C"/>
<path d="M82.6368 87.7328C82.567 88 82.727 88.2731 82.9942 88.3429L87.3481 89.4803C87.6153 89.5501 87.8884 89.3901 87.9582 89.1229C88.028 88.8557 87.868 88.5825 87.6008 88.5127L83.7307 87.5018L84.7417 83.6316C84.8115 83.3644 84.6515 83.0913 84.3843 83.0215C84.1171 82.9517 83.844 83.1117 83.7742 83.3789L82.6368 87.7328ZM92.6301 81.7094L82.8679 87.4277L83.3733 88.2906L93.1355 82.5723L92.6301 81.7094Z" fill="black"/>
<path d="M61.9296 34.5777C61.9709 34.3046 61.7831 34.0498 61.51 34.0085L57.0607 33.3351C56.7877 33.2937 56.5328 33.4816 56.4915 33.7546C56.4502 34.0276 56.638 34.2825 56.9111 34.3238L60.866 34.9224L60.2674 38.8773C60.2261 39.1504 60.4139 39.4052 60.687 39.4465C60.96 39.4879 61.2148 39.3 61.2562 39.027L61.9296 34.5777ZM52.6248 41.6181L61.7319 34.9053L61.1385 34.1004L52.0315 40.8131L52.6248 41.6181Z" fill="#585DED"/>
<path d="M73.292 20.3274L106.5 1.1547L139.708 20.3274V58.6726L106.5 77.8453L73.292 58.6726V20.3274Z" stroke="#242D3C" stroke-width="2"/>
<path d="M72 77.5L100 62" stroke="#585DED" stroke-width="2" stroke-linejoin="round"/>
</svg>
