<svg width="146" height="127" viewBox="0 0 146 127" fill="none" xmlns="http://www.w3.org/2000/svg">
<path d="M106.5 2L140.708 21.75V61.25L106.5 81L72.292 61.25V21.75L106.5 2Z" fill="white" stroke="#585DED" stroke-width="2"/>
<path d="M55 58.5L83 43" stroke="#242D3C" stroke-width="2" stroke-linejoin="round"/>
<path d="M6.292 68.3274L39.5 49.1547L72.708 68.3274V106.673L39.5 125.845L6.292 106.673V68.3274Z" stroke="#242D3C" stroke-width="2"/>
<path d="M7 69L38.5 87V125.5" stroke="#242D3C" stroke-width="2"/>
<path d="M75 23L106.5 41V79.5" stroke="#585DED" stroke-width="2"/>
<path d="M38 88L66 72.5" stroke="#242D3C" stroke-width="2"/>
<path d="M38 88L66 72.5" stroke="#242D3C" stroke-width="2"/>
<path d="M111 39L139 23.5" stroke="#585DED" stroke-width="2"/>
<circle cx="39" cy="88" r="12" fill="white" stroke="#5C59EE" stroke-width="2"/>
<path fill-rule="evenodd" clip-rule="evenodd" d="M38.7638 80.8108C34.7982 80.8108 31.5735 84.0355 31.5735 87.9999C31.5735 91.9645 34.7982 95.1892 38.7638 95.1892C42.7271 95.1892 45.9528 91.9645 45.9528 87.9999C45.9528 84.0355 42.7271 80.8108 38.7638 80.8108ZM38.7638 96C34.3524 96 30.7637 92.4113 30.7637 87.9999C30.7637 83.5887 34.3524 80 38.7638 80C43.174 80 46.7627 83.5887 46.7627 87.9999C46.7627 92.4113 43.174 96 38.7638 96Z" fill="#5C59EE"/>
<path fill-rule="evenodd" clip-rule="evenodd" d="M42.3559 87.2103C42.5127 86.1622 41.7147 85.5987 40.6235 85.2228L40.9774 83.803L40.1132 83.5876L39.7686 84.97C39.5414 84.9134 39.308 84.86 39.0762 84.8071L39.4232 83.4156L38.5595 83.2002L38.2053 84.6195C38.0172 84.5767 37.8326 84.5343 37.6534 84.4898L37.6544 84.4854L36.4625 84.1878L36.2326 85.1108C36.2326 85.1108 36.8738 85.2578 36.8603 85.2669C37.2103 85.3543 37.2736 85.5859 37.263 85.7695L36.8598 87.387C36.8839 87.3932 36.9152 87.402 36.9496 87.4158L36.9203 87.4085C36.9003 87.4035 36.8795 87.3983 36.8583 87.3932L36.2931 89.659C36.2503 89.7654 36.1418 89.9249 35.8971 89.8643C35.9057 89.8769 35.2689 89.7075 35.2689 89.7075L34.8398 90.6968L35.9645 90.9772C36.0901 91.0087 36.2142 91.041 36.337 91.073L36.3373 91.0731C36.419 91.0944 36.5001 91.1156 36.5806 91.1362L36.223 92.5723L37.0862 92.7876L37.4405 91.3668C37.6763 91.4308 37.9052 91.4899 38.1292 91.5455L37.7762 92.9597L38.6405 93.1751L38.9981 91.7417C40.4718 92.0206 41.58 91.9081 42.0465 90.5752C42.4224 89.502 42.0278 88.8829 41.2524 88.4792C41.8171 88.349 42.2424 87.9775 42.3559 87.2103ZM37.8897 90.3706L37.8897 90.3706C37.8262 90.3538 37.7695 90.3388 37.7212 90.3268L38.1958 88.4243C38.2546 88.439 38.3266 88.4551 38.4081 88.4734C39.1375 88.6371 40.6322 88.9725 40.3811 89.9793C40.1361 90.9639 38.5949 90.5568 37.8897 90.3706ZM38.5546 87.5905C39.1425 87.7474 40.425 88.0897 40.6484 87.1948C40.8765 86.2794 39.63 86.0034 39.0213 85.8687C38.9528 85.8535 38.8924 85.8402 38.8431 85.8279L38.4128 87.5534C38.4535 87.5635 38.5011 87.5763 38.5546 87.5905Z" fill="#242D3C"/>
<circle cx="108" cy="41" r="12" fill="white" stroke="#585DED" stroke-width="2"/>
<path fill-rule="evenodd" clip-rule="evenodd" d="M108 33.8108C104.035 33.8108 100.81 37.0355 100.81 40.9999C100.81 44.9642 104.035 48.1891 108 48.1891C111.964 48.1891 115.189 44.9642 115.189 40.9999C115.189 37.0355 111.964 33.8108 108 33.8108ZM108 49C103.589 49 100 45.4113 100 40.9999C100 36.5887 103.589 33 108 33C112.411 33 115.999 36.5887 115.999 40.9999C115.999 45.4113 112.411 49 108 49Z" fill="#242D3C"/>
<path fill-rule="evenodd" clip-rule="evenodd" d="M108.759 41.4054H107.24C106.658 41.4054 106.111 41.1788 105.701 40.7685C105.29 40.3551 105.063 39.8083 105.063 39.2278C105.063 38.6463 105.29 38.0995 105.701 37.6881C106.112 37.2767 106.659 37.0504 107.24 37.0504H110.531C110.755 37.0504 110.936 37.2322 110.936 37.4557C110.936 37.6792 110.755 37.8613 110.531 37.8613H107.24C106.875 37.8613 106.532 38.0025 106.274 38.2617C106.015 38.5197 105.873 38.863 105.873 39.2278C105.873 39.5928 106.015 39.9369 106.274 40.1961C106.531 40.453 106.875 40.5946 107.24 40.5946H108.759C108.983 40.5946 109.164 40.7766 109.164 40.9998C109.164 41.2234 108.983 41.4054 108.759 41.4054Z" fill="#242D3C"/>
<path fill-rule="evenodd" clip-rule="evenodd" d="M108.759 44.9496H105.468C105.244 44.9496 105.063 44.7676 105.063 44.544C105.063 44.3208 105.244 44.1387 105.468 44.1387H108.759C109.124 44.1387 109.468 43.9972 109.726 43.7393C109.984 43.481 110.126 43.138 110.126 42.772C110.126 42.4062 109.984 42.0631 109.726 41.8049C109.467 41.5467 109.123 41.4055 108.759 41.4055H107.24C107.017 41.4055 106.835 41.2234 106.835 40.9999C106.835 40.7766 107.017 40.5946 107.24 40.5946H108.759C109.338 40.5946 109.885 40.8209 110.298 41.2313C110.71 41.6427 110.936 42.1897 110.936 42.772C110.936 43.3545 110.71 43.9013 110.298 44.3127C109.888 44.723 109.341 44.9496 108.759 44.9496Z" fill="#242D3C"/>
<path fill-rule="evenodd" clip-rule="evenodd" d="M108 45.9621C107.776 45.9621 107.595 45.7801 107.595 45.5566V36.4431C107.595 36.2198 107.776 36.0378 108 36.0378C108.223 36.0378 108.405 36.2198 108.405 36.4431V45.5566C108.405 45.7801 108.223 45.9621 108 45.9621Z" fill="#242D3C"/>
<path d="M82.6349 89.7328C82.5651 90 82.7251 90.2731 82.9922 90.3429L87.3461 91.4803C87.6133 91.5501 87.8865 91.3901 87.9563 91.1229C88.0261 90.8557 87.8661 90.5825 87.5989 90.5127L83.7288 89.5018L84.7398 85.6316C84.8095 85.3644 84.6495 85.0913 84.3824 85.0215C84.1152 84.9517 83.842 85.1117 83.7722 85.3789L82.6349 89.7328ZM92.6281 83.7094L82.8659 89.4277L83.3713 90.2906L93.1336 84.5723L92.6281 83.7094Z" fill="black"/>
<path d="M61.9291 36.5777C61.9704 36.3046 61.7826 36.0498 61.5095 36.0085L57.0602 35.3351C56.7872 35.2937 56.5323 35.4816 56.491 35.7546C56.4497 36.0276 56.6375 36.2825 56.9106 36.3238L60.8655 36.9224L60.2669 40.8773C60.2256 41.1504 60.4135 41.4052 60.6865 41.4465C60.9595 41.4879 61.2144 41.3 61.2557 41.027L61.9291 36.5777ZM52.6243 43.6181L61.7314 36.9053L61.1381 36.1004L52.031 42.8131L52.6243 43.6181Z" fill="#585DED"/>
<path d="M72 79.5L100 64" stroke="#585DED" stroke-width="2" stroke-linejoin="round"/>
</svg>
