<svg width="93" height="96" viewBox="0 0 93 96" fill="none" xmlns="http://www.w3.org/2000/svg">
<circle cx="69" cy="83" r="12" fill="white" stroke="#242D3C" stroke-width="2"/>
<path fill-rule="evenodd" clip-rule="evenodd" d="M68.9995 75.8108C65.0352 75.8108 61.81 79.0355 61.81 82.9999C61.81 86.9642 65.0352 90.1891 68.9995 90.1891C72.9639 90.1891 76.1891 86.9642 76.1891 82.9999C76.1891 79.0355 72.9639 75.8108 68.9995 75.8108ZM68.9996 91C64.5887 91 61 87.4113 61 82.9999C61 78.5887 64.5887 75 68.9996 75C73.4106 75 76.9992 78.5887 76.9992 82.9999C76.9992 87.4113 73.4106 91 68.9996 91V91Z" fill="#242D3C"/>
<path fill-rule="evenodd" clip-rule="evenodd" d="M69.759 83.4058H68.2401C67.6581 83.4058 67.1113 83.1792 66.7009 82.7688C66.2896 82.3554 66.063 81.8086 66.063 81.2281C66.063 80.6467 66.2896 80.0998 66.7009 79.6885C67.1123 79.2771 67.6586 79.0508 68.2401 79.0508H71.5311C71.7546 79.0508 71.9361 79.2325 71.9361 79.4561C71.9361 79.6796 71.7546 79.8616 71.5311 79.8616H68.2401C67.8753 79.8616 67.532 80.0029 67.2736 80.2621C67.0153 80.5201 66.8731 80.8634 66.8731 81.2281C66.8731 81.5932 67.0153 81.9372 67.2741 82.1965C67.531 82.4534 67.8748 82.5949 68.2401 82.5949H69.759C69.9825 82.5949 70.1641 82.7769 70.1641 83.0002C70.1641 83.2237 69.9825 83.4058 69.759 83.4058" fill="#242D3C"/>
<path fill-rule="evenodd" clip-rule="evenodd" d="M69.759 86.9497H66.468C66.2445 86.9497 66.063 86.7677 66.063 86.5442C66.063 86.3209 66.2445 86.1389 66.468 86.1389H69.759C70.1243 86.1389 70.4681 85.9973 70.7256 85.7394C70.9838 85.4812 71.126 85.1382 71.126 84.7721C71.126 84.4063 70.9838 84.0633 70.7256 83.805C70.4666 83.5468 70.123 83.4056 69.759 83.4056H68.2401C68.0166 83.4056 67.8351 83.2236 67.8351 83C67.8351 82.7767 68.0166 82.5947 68.2401 82.5947H69.759C70.3385 82.5947 70.8848 82.821 71.2977 83.2314C71.7096 83.6428 71.9361 84.1898 71.9361 84.7721C71.9361 85.3546 71.7096 85.9014 71.2982 86.3128C70.8878 86.7231 70.341 86.9497 69.759 86.9497" fill="#242D3C"/>
<path fill-rule="evenodd" clip-rule="evenodd" d="M68.9998 87.9624C68.7762 87.9624 68.5947 87.7804 68.5947 87.5569V78.4434C68.5947 78.2201 68.7762 78.0381 68.9998 78.0381C69.2233 78.0381 69.4048 78.2201 69.4048 78.4434V87.5569C69.4048 87.7804 69.2233 87.9624 68.9998 87.9624" fill="#242D3C"/>
<circle cx="47" cy="83" r="12" fill="white" stroke="#242D3C" stroke-width="2"/>
<path fill-rule="evenodd" clip-rule="evenodd" d="M46.9995 75.8108C43.0352 75.8108 39.81 79.0355 39.81 82.9999C39.81 86.9642 43.0352 90.1891 46.9995 90.1891C50.9639 90.1891 54.1891 86.9642 54.1891 82.9999C54.1891 79.0355 50.9639 75.8108 46.9995 75.8108ZM46.9996 91C42.5887 91 39 87.4113 39 82.9999C39 78.5887 42.5887 75 46.9996 75C51.4106 75 54.9992 78.5887 54.9992 82.9999C54.9992 87.4113 51.4106 91 46.9996 91V91Z" fill="#242D3C"/>
<path fill-rule="evenodd" clip-rule="evenodd" d="M47.759 83.4058H46.2401C45.6581 83.4058 45.1113 83.1792 44.7009 82.7688C44.2896 82.3554 44.063 81.8086 44.063 81.2281C44.063 80.6467 44.2896 80.0998 44.7009 79.6885C45.1123 79.2771 45.6586 79.0508 46.2401 79.0508H49.5311C49.7546 79.0508 49.9361 79.2325 49.9361 79.4561C49.9361 79.6796 49.7546 79.8616 49.5311 79.8616H46.2401C45.8753 79.8616 45.532 80.0029 45.2736 80.2621C45.0153 80.5201 44.8731 80.8634 44.8731 81.2281C44.8731 81.5932 45.0153 81.9372 45.2741 82.1965C45.531 82.4534 45.8748 82.5949 46.2401 82.5949H47.759C47.9825 82.5949 48.1641 82.7769 48.1641 83.0002C48.1641 83.2237 47.9825 83.4058 47.759 83.4058" fill="#242D3C"/>
<path fill-rule="evenodd" clip-rule="evenodd" d="M47.759 86.9497H44.468C44.2445 86.9497 44.063 86.7677 44.063 86.5442C44.063 86.3209 44.2445 86.1389 44.468 86.1389H47.759C48.1243 86.1389 48.4681 85.9973 48.7256 85.7394C48.9838 85.4812 49.126 85.1382 49.126 84.7721C49.126 84.4063 48.9838 84.0633 48.7256 83.805C48.4666 83.5468 48.123 83.4056 47.759 83.4056H46.2401C46.0166 83.4056 45.8351 83.2236 45.8351 83C45.8351 82.7767 46.0166 82.5947 46.2401 82.5947H47.759C48.3385 82.5947 48.8848 82.821 49.2977 83.2314C49.7096 83.6428 49.9361 84.1898 49.9361 84.7721C49.9361 85.3546 49.7096 85.9014 49.2982 86.3128C48.8878 86.7231 48.341 86.9497 47.759 86.9497" fill="#242D3C"/>
<path fill-rule="evenodd" clip-rule="evenodd" d="M46.9998 87.9624C46.7762 87.9624 46.5947 87.7804 46.5947 87.5569V78.4434C46.5947 78.2201 46.7762 78.0381 46.9998 78.0381C47.2233 78.0381 47.4048 78.2201 47.4048 78.4434V87.5569C47.4048 87.7804 47.2233 87.9624 46.9998 87.9624" fill="#242D3C"/>
<circle cx="25" cy="83" r="12" fill="white" stroke="#242D3C" stroke-width="2"/>
<path fill-rule="evenodd" clip-rule="evenodd" d="M24.9995 75.8108C21.0352 75.8108 17.81 79.0355 17.81 82.9999C17.81 86.9642 21.0352 90.1891 24.9995 90.1891C28.9639 90.1891 32.1891 86.9642 32.1891 82.9999C32.1891 79.0355 28.9639 75.8108 24.9995 75.8108ZM24.9996 91C20.5887 91 17 87.4113 17 82.9999C17 78.5887 20.5887 75 24.9996 75C29.4106 75 32.9992 78.5887 32.9992 82.9999C32.9992 87.4113 29.4106 91 24.9996 91V91Z" fill="#242D3C"/>
<path fill-rule="evenodd" clip-rule="evenodd" d="M25.759 83.4058H24.2401C23.6581 83.4058 23.1113 83.1792 22.7009 82.7688C22.2896 82.3554 22.063 81.8086 22.063 81.2281C22.063 80.6467 22.2896 80.0998 22.7009 79.6885C23.1123 79.2771 23.6586 79.0508 24.2401 79.0508H27.5311C27.7546 79.0508 27.9361 79.2325 27.9361 79.4561C27.9361 79.6796 27.7546 79.8616 27.5311 79.8616H24.2401C23.8753 79.8616 23.532 80.0029 23.2736 80.2621C23.0153 80.5201 22.8731 80.8634 22.8731 81.2281C22.8731 81.5932 23.0153 81.9372 23.2741 82.1965C23.531 82.4534 23.8748 82.5949 24.2401 82.5949H25.759C25.9825 82.5949 26.1641 82.7769 26.1641 83.0002C26.1641 83.2237 25.9825 83.4058 25.759 83.4058" fill="#242D3C"/>
<path fill-rule="evenodd" clip-rule="evenodd" d="M25.759 86.9497H22.468C22.2445 86.9497 22.063 86.7677 22.063 86.5442C22.063 86.3209 22.2445 86.1389 22.468 86.1389H25.759C26.1243 86.1389 26.4681 85.9973 26.7256 85.7394C26.9838 85.4812 27.126 85.1382 27.126 84.7721C27.126 84.4063 26.9838 84.0633 26.7256 83.805C26.4666 83.5468 26.123 83.4056 25.759 83.4056H24.2401C24.0166 83.4056 23.8351 83.2236 23.8351 83C23.8351 82.7767 24.0166 82.5947 24.2401 82.5947H25.759C26.3385 82.5947 26.8848 82.821 27.2977 83.2314C27.7096 83.6428 27.9361 84.1898 27.9361 84.7721C27.9361 85.3546 27.7096 85.9014 27.2982 86.3128C26.8878 86.7231 26.341 86.9497 25.759 86.9497" fill="#242D3C"/>
<path fill-rule="evenodd" clip-rule="evenodd" d="M24.9995 87.9624C24.776 87.9624 24.5945 87.7804 24.5945 87.5569V78.4434C24.5945 78.2201 24.776 78.0381 24.9995 78.0381C25.2231 78.0381 25.4046 78.2201 25.4046 78.4434V87.5569C25.4046 87.7804 25.2231 87.9624 24.9995 87.9624" fill="#242D3C"/>
<rect x="1" y="1" width="91" height="52" fill="white" stroke="#585DED" stroke-width="2"/>
<circle cx="46.4997" cy="27.0004" r="15.6" stroke="#242D3C" stroke-width="2"/>
<circle cx="77.6998" cy="27.65" r="7.15" stroke="#242D3C" stroke-width="2"/>
<circle cx="16.5997" cy="27.65" r="7.15" stroke="#242D3C" stroke-width="2"/>
<path fill-rule="evenodd" clip-rule="evenodd" d="M48.1599 27.7931H45.3744C44.3071 27.7931 43.3043 27.3776 42.5517 26.6251C41.7973 25.867 41.3818 24.8642 41.3818 23.7997C41.3818 22.7333 41.7973 21.7305 42.5517 20.9761C43.3062 20.2217 44.308 19.8066 45.3744 19.8066H51.4096C51.8196 19.8066 52.1524 20.14 52.1524 20.5499C52.1524 20.9598 51.8196 21.2936 51.4096 21.2936H45.3744C44.7054 21.2936 44.0759 21.5527 43.6019 22.0281C43.1283 22.5011 42.8674 23.1307 42.8674 23.7997C42.8674 24.4691 43.1283 25.1 43.6028 25.5754C44.074 26.0466 44.7045 26.3061 45.3744 26.3061H48.1599C48.5698 26.3061 48.9027 26.6399 48.9027 27.0494C48.9027 27.4593 48.5698 27.7931 48.1599 27.7931" fill="#242D3C"/>
<path fill-rule="evenodd" clip-rule="evenodd" d="M48.1599 34.2922H42.1246C41.7147 34.2922 41.3818 33.9584 41.3818 33.5484C41.3818 33.139 41.7147 32.8052 42.1246 32.8052H48.1599C48.8298 32.8052 49.4603 32.5457 49.9324 32.0726C50.4059 31.599 50.6668 30.97 50.6668 30.2987C50.6668 29.6278 50.4059 28.9988 49.9324 28.5252C49.4575 28.0517 48.8275 27.7927 48.1599 27.7927H45.3744C44.9645 27.7927 44.6316 27.4589 44.6316 27.0489C44.6316 26.6395 44.9645 26.3057 45.3744 26.3057H48.1599C49.2226 26.3057 50.2244 26.7207 50.9816 27.4733C51.7369 28.2277 52.1524 29.2309 52.1524 30.2987C52.1524 31.3669 51.7369 32.3697 50.9825 33.1241C50.23 33.8767 49.2272 34.2922 48.1599 34.2922" fill="#242D3C"/>
<path fill-rule="evenodd" clip-rule="evenodd" d="M46.7672 36.1492C46.3573 36.1492 46.0244 35.8154 46.0244 35.4055V18.6925C46.0244 18.283 46.3573 17.9492 46.7672 17.9492C47.1771 17.9492 47.51 18.283 47.51 18.6925V35.4055C47.51 35.8154 47.1771 36.1492 46.7672 36.1492" fill="#242D3C"/>
<path d="M12.7 2.2998C12.7 8.04357 8.04381 12.6998 2.30005 12.6998" stroke="#585DED" stroke-width="2"/>
<path d="M11.4 53C11.4 47.2562 6.74376 42.6 1 42.6" stroke="#585DED" stroke-width="2"/>
<path d="M80.3002 2.2998C80.3002 8.04357 84.9564 12.6998 90.7002 12.6998" stroke="#585DED" stroke-width="2"/>
<path d="M80.3002 53C80.3002 47.2562 84.9564 42.6 90.7002 42.6" stroke="#585DED" stroke-width="2"/>
</svg>
