<svg width="115" height="126" viewBox="0 0 115 126" fill="none" xmlns="http://www.w3.org/2000/svg">
<path d="M57 64.5L57.0004 104.5" stroke="#242D3C" stroke-width="2"/>
<path d="M57 24L57 64.5" stroke="#5C59EE" stroke-width="2"/>
<path d="M23 83L92 46" stroke="#5C59EE" stroke-width="2"/>
<path d="M23.3491 45.3629L91.6505 83.637" stroke="#5C59EE" stroke-width="2"/>
<path fill-rule="evenodd" clip-rule="evenodd" d="M101.764 82.8108C97.7982 82.8108 94.5735 86.0355 94.5735 89.9999C94.5735 93.9645 97.7982 97.1892 101.764 97.1892C105.727 97.1892 108.953 93.9645 108.953 89.9999C108.953 86.0355 105.727 82.8108 101.764 82.8108ZM101.764 98C97.3524 98 93.7637 94.4113 93.7637 89.9999C93.7637 85.5887 97.3524 82 101.764 82C106.174 82 109.763 85.5887 109.763 89.9999C109.763 94.4113 106.174 98 101.764 98Z" fill="#5C59EE"/>
<path d="M105.185 86H106.668L103.58 89.0636C102.462 90.174 100.646 90.174 99.5277 89.0636L96.4316 86H97.9148L100.265 88.3261C100.97 89.0312 102.121 89.0312 102.834 88.3261L105.185 86Z" fill="#23292F"/>
<path d="M97.8992 94.51H96.416L99.5282 91.4302C100.647 90.3198 102.462 90.3198 103.581 91.4302L106.693 94.51H105.21L102.835 92.1677C102.13 91.4626 100.979 91.4626 100.266 92.1677L97.8992 94.51Z" fill="#23292F"/>
<path fill-rule="evenodd" clip-rule="evenodd" d="M56.7638 5.81085C52.7982 5.81085 49.5735 9.03551 49.5735 12.9999C49.5735 16.9645 52.7982 20.1892 56.7638 20.1892C60.7271 20.1892 63.9528 16.9645 63.9528 12.9999C63.9528 9.03551 60.7271 5.81085 56.7638 5.81085ZM56.7638 21C52.3524 21 48.7637 17.4113 48.7637 12.9999C48.7637 8.58869 52.3524 5 56.7638 5C61.174 5 64.7627 8.58869 64.7627 12.9999C64.7627 17.4113 61.174 21 56.7638 21Z" fill="#5C59EE"/>
<path d="M56.6917 14.9474L57.2113 12.9908L58.4415 12.5414L58.7475 11.3915L58.7371 11.363L57.5261 11.8054L58.3986 8.52002H55.9241L54.7831 12.8075L53.8304 13.1555L53.5156 14.341L54.4676 13.9932L53.7951 16.52H60.3806L60.8028 14.9474H56.6917Z" fill="#242D3C"/>
<circle cx="56" cy="113" r="12" fill="white" stroke="#242D3C" stroke-width="2"/>
<path fill-rule="evenodd" clip-rule="evenodd" d="M54.0692 113.463C53.9763 113.463 53.8834 113.431 53.8062 113.366C53.1269 112.787 52.7363 111.949 52.7363 111.066C52.7363 109.397 54.095 108.038 55.7643 108.038C57.4333 108.038 58.7912 109.397 58.7912 111.066C58.7912 111.289 58.6102 111.471 58.3867 111.471C58.1632 111.471 57.9811 111.289 57.9811 111.066C57.9811 109.844 56.9865 108.849 55.7643 108.849C54.5418 108.849 53.5472 109.844 53.5472 111.066C53.5472 111.712 53.833 112.324 54.3322 112.749C54.5023 112.894 54.5221 113.149 54.3778 113.319C54.2978 113.414 54.1839 113.463 54.0692 113.463Z" fill="#242D3C"/>
<path fill-rule="evenodd" clip-rule="evenodd" d="M58.3864 117.962H53.1413C52.9405 117.962 52.7704 117.815 52.7408 117.617C52.7112 117.418 52.8309 117.228 53.0226 117.169C53.961 116.882 54.5911 116.031 54.5911 115.049C54.5911 114.403 54.3053 113.79 53.8058 113.366C53.6357 113.221 53.616 112.965 53.7603 112.795C53.9048 112.623 54.1618 112.603 54.3319 112.749C55.0113 113.327 55.402 114.166 55.402 115.049C55.402 115.858 55.0875 116.602 54.5574 117.151H58.3864C58.6099 117.151 58.7909 117.333 58.7909 117.557C58.7909 117.78 58.6099 117.962 58.3864 117.962Z" fill="#242D3C"/>
<path fill-rule="evenodd" clip-rule="evenodd" d="M57.0457 114.902H53.1416C52.9181 114.902 52.7363 114.72 52.7363 114.496C52.7363 114.273 52.9181 114.091 53.1416 114.091H57.0457C57.2693 114.091 57.4503 114.273 57.4503 114.496C57.4503 114.72 57.2693 114.902 57.0457 114.902Z" fill="#242D3C"/>
<path fill-rule="evenodd" clip-rule="evenodd" d="M55.7638 105.811C51.7982 105.811 48.5735 109.036 48.5735 113C48.5735 116.964 51.7982 120.189 55.7638 120.189C59.7271 120.189 62.9528 116.964 62.9528 113C62.9528 109.036 59.7271 105.811 55.7638 105.811ZM55.7638 121C51.3524 121 47.7637 117.411 47.7637 113C47.7637 108.589 51.3524 105 55.7638 105C60.174 105 63.7627 108.589 63.7627 113C63.7627 117.411 60.174 121 55.7638 121Z" fill="#242D3C"/>
<path fill-rule="evenodd" clip-rule="evenodd" d="M12.7638 82.8108C8.79816 82.8108 5.5735 86.0355 5.5735 89.9999C5.5735 93.9645 8.79816 97.1892 12.7638 97.1892C16.7271 97.1892 19.9528 93.9645 19.9528 89.9999C19.9528 86.0355 16.7271 82.8108 12.7638 82.8108ZM12.7638 98C8.35236 98 4.76367 94.4113 4.76367 89.9999C4.76367 85.5887 8.35236 82 12.7638 82C17.174 82 20.7627 85.5887 20.7627 89.9999C20.7627 94.4113 17.174 98 12.7638 98Z" fill="#5C59EE"/>
<path fill-rule="evenodd" clip-rule="evenodd" d="M16.3559 89.2103C16.5127 88.1622 15.7147 87.5987 14.6235 87.2228L14.9774 85.803L14.1132 85.5876L13.7686 86.97C13.5414 86.9134 13.308 86.86 13.0762 86.8071L13.4232 85.4156L12.5595 85.2002L12.2053 86.6195C12.0172 86.5767 11.8326 86.5343 11.6534 86.4898L11.6544 86.4854L10.4625 86.1878L10.2326 87.1108C10.2326 87.1108 10.8738 87.2578 10.8603 87.2669C11.2103 87.3543 11.2736 87.5859 11.263 87.7695L10.8598 89.387C10.8839 89.3932 10.9152 89.402 10.9496 89.4158L10.9203 89.4085C10.9003 89.4035 10.8795 89.3983 10.8583 89.3932L10.2931 91.659C10.2503 91.7654 10.1418 91.9249 9.89707 91.8643C9.90569 91.8769 9.26889 91.7075 9.26889 91.7075L8.83984 92.6968L9.96452 92.9772C10.0901 93.0087 10.2142 93.041 10.337 93.073L10.3373 93.0731C10.419 93.0944 10.5001 93.1156 10.5806 93.1362L10.223 94.5723L11.0862 94.7876L11.4405 93.3668C11.6763 93.4308 11.9052 93.4899 12.1292 93.5455L11.7762 94.9597L12.6405 95.1751L12.9981 93.7417C14.4718 94.0206 15.58 93.9081 16.0465 92.5752C16.4224 91.502 16.0278 90.8829 15.2524 90.4792C15.8171 90.349 16.2424 89.9775 16.3559 89.2103ZM11.8897 92.3706L11.8897 92.3706C11.8262 92.3538 11.7695 92.3388 11.7212 92.3268L12.1958 90.4243C12.2546 90.439 12.3266 90.4551 12.4081 90.4734C13.1375 90.6371 14.6322 90.9725 14.3811 91.9793C14.1361 92.9639 12.5949 92.5568 11.8897 92.3706ZM12.5546 89.5905C13.1425 89.7474 14.425 90.0897 14.6484 89.1948C14.8765 88.2794 13.63 88.0034 13.0213 87.8687C12.9528 87.8535 12.8924 87.8402 12.8431 87.8279L12.4128 89.5534C12.4535 89.5635 12.5011 89.5763 12.5546 89.5905Z" fill="#242D3C"/>
<circle cx="57" cy="13" r="12" stroke="#5C59EE" stroke-width="2"/>
<circle cx="102" cy="40" r="12" fill="white" stroke="#242D3C" stroke-width="2"/>
<path fill-rule="evenodd" clip-rule="evenodd" d="M102 32.741C98.0352 32.741 94.8098 35.9657 94.8098 39.9301C94.8098 43.8944 98.0352 47.1193 102 47.1193C105.964 47.1193 109.189 43.8944 109.189 39.9301C109.189 35.9657 105.964 32.741 102 32.741ZM102 47.9302C97.5887 47.9302 94 44.3415 94 39.93C94 35.5186 97.5887 31.9302 102 31.9302C106.411 31.9302 109.999 35.5186 109.999 39.93C109.999 44.3415 106.411 47.9302 102 47.9302Z" fill="#242D3C"/>
<path fill-rule="evenodd" clip-rule="evenodd" d="M101.999 44.8924C99.2631 44.8924 97.0371 42.6664 97.0371 39.9301C97.0371 37.194 99.2631 34.968 101.999 34.968C103.614 34.968 105.133 35.7629 106.063 37.094C106.191 37.278 106.146 37.5302 105.963 37.6585C105.779 37.7871 105.528 37.7418 105.399 37.5588C104.62 36.4434 103.349 35.7789 101.999 35.7789C99.7096 35.7789 97.8469 37.6408 97.8469 39.9301C97.8469 42.2193 99.7096 44.0815 101.999 44.0815C103.349 44.0815 104.621 43.416 105.401 42.3013C105.529 42.1186 105.782 42.073 105.965 42.2016C106.148 42.3302 106.193 42.5823 106.065 42.7661C105.134 44.0972 103.613 44.8924 101.999 44.8924Z" fill="#242D3C"/>
<path fill-rule="evenodd" clip-rule="evenodd" d="M102.435 39.3189H95.9265C95.703 39.3189 95.5215 39.1369 95.5215 38.9134C95.5215 38.6901 95.703 38.5081 95.9265 38.5081H102.435C102.659 38.5081 102.84 38.6901 102.84 38.9134C102.84 39.1369 102.659 39.3189 102.435 39.3189Z" fill="#242D3C"/>
<path fill-rule="evenodd" clip-rule="evenodd" d="M102.435 41.3521H95.9265C95.703 41.3521 95.5215 41.1703 95.5215 40.9468C95.5215 40.7233 95.703 40.5413 95.9265 40.5413H102.435C102.659 40.5413 102.84 40.7233 102.84 40.9468C102.84 41.1703 102.659 41.3521 102.435 41.3521Z" fill="#242D3C"/>
<circle cx="102" cy="90" r="12" stroke="#5C59EE" stroke-width="2"/>
<circle cx="13" cy="40" r="12" fill="white" stroke="#242D3C" stroke-width="2"/>
<path fill-rule="evenodd" clip-rule="evenodd" d="M12.9995 32.8108C9.03515 32.8108 5.80999 36.0355 5.80999 39.9999C5.80999 43.9642 9.03515 47.1891 12.9995 47.1891C16.9639 47.1891 20.1891 43.9642 20.1891 39.9999C20.1891 36.0355 16.9639 32.8108 12.9995 32.8108ZM12.9996 48C8.58869 48 5 44.4113 5 39.9999C5 35.5887 8.58869 32 12.9996 32C17.4106 32 20.9992 35.5887 20.9992 39.9999C20.9992 44.4113 17.4106 48 12.9996 48Z" fill="#242D3C"/>
<path fill-rule="evenodd" clip-rule="evenodd" d="M13.7585 40.4055H12.2396C11.6576 40.4055 11.1108 40.1789 10.7004 39.7686C10.2891 39.3552 10.0625 38.8084 10.0625 38.2279C10.0625 37.6464 10.2891 37.0996 10.7004 36.6882C11.1118 36.2769 11.6581 36.0505 12.2396 36.0505H15.5306C15.7541 36.0505 15.9356 36.2323 15.9356 36.4558C15.9356 36.6794 15.7541 36.8614 15.5306 36.8614H12.2396C11.8748 36.8614 11.5315 37.0026 11.2731 37.2619C11.0149 37.5198 10.8726 37.8631 10.8726 38.2279C10.8726 38.5929 11.0149 38.937 11.2736 39.1962C11.5305 39.4532 11.8743 39.5947 12.2396 39.5947H13.7585C13.9821 39.5947 14.1636 39.7767 14.1636 40C14.1636 40.2235 13.9821 40.4055 13.7585 40.4055Z" fill="#242D3C"/>
<path fill-rule="evenodd" clip-rule="evenodd" d="M13.7585 43.9495H10.4675C10.244 43.9495 10.0625 43.7674 10.0625 43.5439C10.0625 43.3206 10.244 43.1386 10.4675 43.1386H13.7585C14.1238 43.1386 14.4676 42.9971 14.7251 42.7391C14.9833 42.4809 15.1256 42.1379 15.1256 41.7718C15.1256 41.406 14.9833 41.063 14.7251 40.8048C14.4661 40.5466 14.1226 40.4053 13.7585 40.4053H12.2396C12.0161 40.4053 11.8346 40.2233 11.8346 39.9998C11.8346 39.7765 12.0161 39.5945 12.2396 39.5945H13.7585C14.338 39.5945 14.8843 39.8208 15.2972 40.2312C15.7091 40.6425 15.9356 41.1896 15.9356 41.7718C15.9356 42.3544 15.7091 42.9012 15.2977 43.3125C14.8873 43.7229 14.3405 43.9495 13.7585 43.9495Z" fill="#242D3C"/>
<path fill-rule="evenodd" clip-rule="evenodd" d="M12.9988 44.9622C12.7753 44.9622 12.5938 44.7802 12.5938 44.5566V35.4431C12.5938 35.2199 12.7753 35.0378 12.9988 35.0378C13.2223 35.0378 13.4038 35.2199 13.4038 35.4431V44.5566C13.4038 44.7802 13.2223 44.9622 12.9988 44.9622Z" fill="#242D3C"/>
<circle cx="13" cy="90" r="12" stroke="#5C59EE" stroke-width="2"/>
</svg>
