<svg width="128" height="128" viewBox="0 0 128 128" fill="none" xmlns="http://www.w3.org/2000/svg">
<path d="M9.57438 32.5774L64 1.1547L118.426 32.5774V95.4226L64 126.845L9.57438 95.4226V32.5774Z" stroke="#585DED" stroke-width="2"/>
<path d="M66 88H37C36.7348 88 36.4804 87.8946 36.2929 87.7071C36.1054 87.5196 36 87.2652 36 87V37C36 36.7348 36.1054 36.4804 36.2929 36.2929C36.4804 36.1054 36.7348 36 37 36H87C87.2652 36 87.5196 36.1054 87.7071 36.2929C87.8946 36.4804 88 36.7348 88 37V66H86V38H38V86H66V88Z" fill="black"/>
<path d="M42 32L31 32L31 41.5" stroke="#242D3C" stroke-width="2" stroke-linejoin="round"/>
<path d="M42 93H31L31 83" stroke="#242D3C" stroke-width="2" stroke-linejoin="round"/>
<path d="M82 32H93V42" stroke="#242D3C" stroke-width="2" stroke-linejoin="round"/>
<path d="M47 48H41C40.7348 48 40.4804 47.8946 40.2929 47.7071C40.1054 47.5196 40 47.2652 40 47V41C40 40.7348 40.1054 40.4804 40.2929 40.2929C40.4804 40.1054 40.7348 40 41 40H47C47.2652 40 47.5196 40.1054 47.7071 40.2929C47.8946 40.4804 48 40.7348 48 41V47C48 47.2652 47.8946 47.5196 47.7071 47.7071C47.5196 47.8946 47.2652 48 47 48ZM42 46H46V42H42V46Z" fill="black"/>
<path d="M56 84H41C40.7348 84 40.4804 83.8946 40.2929 83.7071C40.1054 83.5196 40 83.2652 40 83V75C40 74.7348 40.1054 74.4804 40.2929 74.2929C40.4804 74.1054 40.7348 74 41 74H47C47.2652 74 47.5196 74.1054 47.7071 74.2929C47.8946 74.4804 48 74.7348 48 75V78H56C56.2652 78 56.5196 78.1054 56.7071 78.2929C56.8946 78.4804 57 78.7348 57 79V83C57 83.2652 56.8946 83.5196 56.7071 83.7071C56.5196 83.8946 56.2652 84 56 84ZM42 82H55V80H47C46.7348 80 46.4804 79.8946 46.2929 79.7071C46.1054 79.5196 46 79.2652 46 79V76H42V82Z" fill="black"/>
<path d="M83 48H77C76.7348 48 76.4804 47.8946 76.2929 47.7071C76.1054 47.5196 76 47.2652 76 47V46H71C70.7348 46 70.4804 45.8946 70.2929 45.7071C70.1054 45.5196 70 45.2652 70 45V41C70 40.7348 70.1054 40.4804 70.2929 40.2929C70.4804 40.1054 70.7348 40 71 40H83C83.2652 40 83.5196 40.1054 83.7071 40.2929C83.8946 40.4804 84 40.7348 84 41V47C84 47.2652 83.8946 47.5196 83.7071 47.7071C83.5196 47.8946 83.2652 48 83 48ZM78 46H82V42H72V44H77C77.2652 44 77.5196 44.1054 77.7071 44.2929C77.8946 44.4804 78 44.7348 78 45V46Z" fill="black"/>
<path d="M51 52H37V50H50V40H52V51C52 51.2652 51.8946 51.5196 51.7071 51.7071C51.5196 51.8946 51.2652 52 51 52Z" fill="black"/>
<path d="M57 76H51C50.7348 76 50.4804 75.8946 50.2929 75.7071C50.1054 75.5196 50 75.2652 50 75V72H37V70H51C51.2652 70 51.5196 70.1054 51.7071 70.2929C51.8946 70.4804 52 70.7348 52 71V74H57V76Z" fill="black"/>
<path d="M84 53H74C73.7348 53 73.4804 52.8946 73.2929 52.7071C73.1054 52.5196 73 52.2652 73 52V50H67C66.7348 50 66.4804 49.8946 66.2929 49.7071C66.1054 49.5196 66 49.2652 66 49V37H68V48H74C74.2652 48 74.5196 48.1054 74.7071 48.2929C74.8946 48.4804 75 48.7348 75 49V51H84V53Z" fill="black"/>
<path d="M61 84H59V68C59 67.7348 59.1054 67.4804 59.2929 67.2929C59.4804 67.1054 59.7348 67 60 67H65V69H61V84Z" fill="black"/>
<path d="M66 63H58V65H66V63Z" fill="black"/>
<path d="M61 48H55C54.7348 48 54.4804 47.8946 54.2929 47.7071C54.1054 47.5196 54 47.2652 54 47V41C54 40.7348 54.1054 40.4804 54.2929 40.2929C54.4804 40.1054 54.7348 40 55 40H61C61.2652 40 61.5196 40.1054 61.7071 40.2929C61.8946 40.4804 62 40.7348 62 41V47C62 47.2652 61.8946 47.5196 61.7071 47.7071C61.5196 47.8946 61.2652 48 61 48ZM56 46H60V42H56V46Z" fill="black"/>
<path d="M55 56H40V54H54V50H56V55C56 55.2652 55.8946 55.5196 55.7071 55.7071C55.5196 55.8946 55.2652 56 55 56Z" fill="black"/>
<path d="M84 55H82V62H84V55Z" fill="black"/>
<path d="M47 64H41C40.7348 64 40.4804 63.8946 40.2929 63.7071C40.1054 63.5196 40 63.2652 40 63V59C40 58.7348 40.1054 58.4804 40.2929 58.2929C40.4804 58.1054 40.7348 58 41 58H47C47.2652 58 47.5196 58.1054 47.7071 58.2929C47.8946 58.4804 48 58.7348 48 59V63C48 63.2652 47.8946 63.5196 47.7071 63.7071C47.5196 63.8946 47.2652 64 47 64ZM42 62H46V60H42V62Z" fill="black"/>
<path d="M65 61H59C58.7348 61 58.4804 60.8946 58.2929 60.7071C58.1054 60.5196 58 60.2652 58 60V55C58 54.7348 58.1054 54.4804 58.2929 54.2929C58.4804 54.1054 58.7348 54 59 54H65C65.2652 54 65.5196 54.1054 65.7071 54.2929C65.8946 54.4804 66 54.7348 66 55V60C66 60.2652 65.8946 60.5196 65.7071 60.7071C65.5196 60.8946 65.2652 61 65 61ZM60 59H64V56H60V59Z" fill="black"/>
<path d="M79 62H73C72.7348 62 72.4804 61.8946 72.2929 61.7071C72.1054 61.5196 72 61.2652 72 61V56C72 55.7348 72.1054 55.4804 72.2929 55.2929C72.4804 55.1054 72.7348 55 73 55H79C79.2652 55 79.5196 55.1054 79.7071 55.2929C79.8946 55.4804 80 55.7348 80 56V61C80 61.2652 79.8946 61.5196 79.7071 61.7071C79.5196 61.8946 79.2652 62 79 62ZM74 60H78V57H74V60Z" fill="black"/>
<path d="M51 68H40V66H50V58H52V67C52 67.2652 51.8946 67.5196 51.7071 67.7071C51.5196 67.8946 51.2652 68 51 68Z" fill="black"/>
<path d="M70 52H68V66H70V52Z" fill="black"/>
<path d="M56 58H54V72H56V58Z" fill="black"/>
<path d="M64 50H58V52H64V50Z" fill="black"/>
<circle cx="82" cy="82" r="16" fill="white" stroke="#242D3C" stroke-width="2"/>
<path d="M78 89C77.7348 88.9999 77.4805 88.8945 77.293 88.707L72.293 83.707L73.707 82.293L78 86.586L90.293 74.293L91.707 75.707L78.707 88.707C78.5195 88.8945 78.2652 88.9999 78 89V89Z" fill="#585DED"/>
</svg>
